<svg xmlns="http://www.w3.org/2000/svg" width="145.367" height="32" viewBox="0 0 145.367 32">
    <path fill="#ef333f" d="M163.085-6426.545h-5.175v-5.175h5.175zm24.193 11.807v14.3h-5.262v-13.827c0-3.435-1.391-5-4.521-5a5.042 5.042 0 0 0-5.348 5.436v13.392h-5.262v-22.74h5.262v3.609c1.087-2.218 3.608-4.087 7.348-4.087 4.565 0 7.783 2.652 7.783 8.914m-29.368-8.435h5.175v22.741h-5.175zm-70.916 12.522h5.7C91.56-6403.578 86.079-6400 78.891-6400c-9.74 0-14.891-6.217-14.891-15.783v-.349c0-9.347 6.064-15.869 14.716-15.869 7.131 0 12.788 3.589 13.895 10.87H86.74c-.826-4.131-3.5-6.261-7.98-6.261-5.478 0-8.673 4.26-8.673 11.218v.347c0 7 3.245 11.131 8.8 11.131 4.1 0 7.083-1.957 8.1-5.956m67.419-6.415h-4.9c-.482-1.888-1.655-2.759-3.976-2.759-2.261 0-3.609 1.086-3.609 2.7 0 1.651 1.087 2.3 4.7 2.912 5.348.826 8.522 2.131 8.522 6.958 0 4.608-3.261 7.26-9.087 7.26-5.87 0-9.305-2.695-9.522-7.521h4.957c.26 2.305 1.435 3.652 4.521 3.652 2.827 0 4.088-1 4.088-2.913 0-1.87-1.522-2.565-4.871-3.131-6-.956-8.217-2.651-8.217-6.913 0-4.565 4.26-6.826 8.522-6.826 4.565 0 8.207 1.677 8.876 6.586m-20.106 0h-4.9c-.482-1.888-1.655-2.759-3.976-2.759-2.261 0-3.609 1.086-3.609 2.7 0 1.651 1.087 2.3 4.7 2.912 5.349.826 8.522 2.131 8.522 6.958 0 4.608-3.261 7.26-9.087 7.26-5.87 0-9.305-2.695-9.522-7.521h4.957c.261 2.305 1.435 3.652 4.522 3.652 2.827 0 4.087-1 4.087-2.913 0-1.87-1.522-2.565-4.87-3.131-6-.956-8.218-2.651-8.218-6.913 0-4.565 4.26-6.826 8.522-6.826 4.565 0 8.207 1.677 8.877 6.586m-25.549 8.676c0 2.913-2.393 4.61-5.61 4.61-2.609 0-3.652-1.263-3.652-3.176 0-2.782 2.565-3.7 6.566-3.7h2.7zm-3.828-15.262c-4.775 0-8.78 1.958-9.613 6.586h5.154c.5-1.68 1.822-2.63 4.156-2.63 3.086 0 4.131 1.522 4.131 4.567v1.173h-2.83c-6.521 0-11.653 1.913-11.653 7.218 0 4.739 3.436 6.739 7.609 6.739 3.478 0 5.478-1.261 6.957-3.216v2.782h5.175v-14.914c0-6.217-4-8.3-9.089-8.3m99.177 15.262c0 2.913-2.391 4.61-5.609 4.61-2.608 0-3.653-1.263-3.653-3.176 0-2.782 2.566-3.7 6.567-3.7h2.7zm-3.826-15.262c-4.775 0-8.782 1.958-9.614 6.586h5.153c.5-1.68 1.822-2.63 4.157-2.63 3.087 0 4.13 1.522 4.13 4.567v1.173h-2.826c-6.523 0-11.654 1.913-11.654 7.218 0 4.739 3.435 6.739 7.609 6.739 3.478 0 5.478-1.261 6.957-3.216v2.782h5.174v-14.914c0-6.217-4-8.3-9.087-8.3" transform="translate(-64 6432)"/>
</svg>
