<svg width="180" height="45" viewBox="0 0 180 45" fill="none" xmlns="http://www.w3.org/2000/svg">
<path d="M96.1478 7.18393C94.412 4.99526 92.1968 3.21428 89.6647 1.97173C87.1326 0.729186 84.3479 0.056624 81.515 0.00342315C78.6822 -0.0497777 75.8731 0.517733 73.294 1.66429C70.7149 2.81085 68.4313 4.50735 66.6108 6.62923L71.2343 10.4179C72.4759 8.9708 74.0333 7.81378 75.7923 7.03182C77.5513 6.24986 79.4671 5.86281 81.3991 5.89909C83.3311 5.93538 85.2303 6.39407 86.9572 7.2415C88.6842 8.08892 90.195 9.30356 91.3787 10.7963L96.1478 7.18393Z" fill="white"/>
<path d="M65.9996 30.9084C67.7473 33.097 69.9778 34.878 72.5274 36.1206C75.077 37.3631 77.8809 38.0357 80.7333 38.0889C83.5857 38.1421 86.4141 37.5746 89.011 36.428C91.6079 35.2814 93.9072 33.5849 95.7402 31.4631L91.0848 27.6743C89.8347 29.1215 88.2665 30.2785 86.4955 31.0605C84.7244 31.8424 82.7953 32.2295 80.85 32.1932C78.9046 32.1569 76.9923 31.6982 75.2535 30.8508C73.5147 30.0034 71.9935 28.7887 70.8015 27.296L65.9996 30.9084Z" fill="white"/>
<path fillRule="evenodd" clipRule="evenodd" d="M81.1756 23.2858C83.5169 23.2858 85.4149 21.3878 85.4149 19.0465C85.4149 16.7051 83.5169 14.8071 81.1756 14.8071C78.8343 14.8071 76.9363 16.7051 76.9363 19.0465C76.9363 21.3878 78.8343 23.2858 81.1756 23.2858ZM81.1756 29.7409C87.082 29.7409 91.87 24.9528 91.87 19.0465C91.87 13.1401 87.082 8.35205 81.1756 8.35205C75.2692 8.35205 70.4812 13.1401 70.4812 19.0465C70.4812 24.9528 75.2692 29.7409 81.1756 29.7409Z" fill="white"/>
<path d="M168.687 17.0051H178.298V20.5984H168.687V17.0051ZM169.03 25.2184H179.895V28.9258H164.438V8.96289H179.524V12.6703H169.03V25.2184Z" fill="white"/>
<path d="M153.077 29.2679C151.537 29.2679 150.101 29.0208 148.77 28.5264C147.458 28.0131 146.318 27.2907 145.348 26.3591C144.378 25.4275 143.618 24.3342 143.067 23.0794C142.534 21.8246 142.268 20.4462 142.268 18.9443C142.268 17.4423 142.534 16.0639 143.067 14.8091C143.618 13.5543 144.378 12.4611 145.348 11.5295C146.337 10.5979 147.487 9.88492 148.799 9.3906C150.111 8.87727 151.546 8.62061 153.105 8.62061C154.835 8.62061 156.394 8.9248 157.782 9.53319C159.189 10.1226 160.368 10.9971 161.318 12.1569L158.352 14.8947C157.668 14.1151 156.908 13.5353 156.071 13.155C155.234 12.7558 154.322 12.5561 153.333 12.5561C152.402 12.5561 151.546 12.7082 150.767 13.0124C149.987 13.3166 149.312 13.7539 148.742 14.3243C148.171 14.8947 147.725 15.5696 147.401 16.3491C147.097 17.1286 146.945 17.9937 146.945 18.9443C146.945 19.8949 147.097 20.7599 147.401 21.5394C147.725 22.3189 148.171 22.9939 148.742 23.5642C149.312 24.1346 149.987 24.5719 150.767 24.8761C151.546 25.1803 152.402 25.3324 153.333 25.3324C154.322 25.3324 155.234 25.1423 156.071 24.762C156.908 24.3628 157.668 23.7639 158.352 22.9654L161.318 25.7031C160.368 26.8629 159.189 27.7469 157.782 28.3553C156.394 28.9637 154.826 29.2679 153.077 29.2679Z" fill="white"/>
<path d="M134.165 28.9258V8.96289H138.785V28.9258H134.165Z" fill="white"/>
<path d="M120.229 17.9462H129.811V21.6536H120.229V17.9462ZM120.571 28.9258H115.951V8.96289H131.037V12.6703H120.571V28.9258Z" fill="white"/>
<path d="M102.015 17.9462H111.597V21.6536H102.015V17.9462ZM102.357 28.9258H97.7373V8.96289H112.824V12.6703H102.357V28.9258Z" fill="white"/>
<path d="M47.1633 17.0051H56.774V20.5984H47.1633V17.0051ZM47.5055 25.2184H58.371V28.9258H42.9141V8.96289H58.0003V12.6703H47.5055V25.2184Z" fill="white"/>
<path d="M33.5709 8.96289H38.1909V28.9258H33.5709V8.96289ZM24.5021 28.9258H19.8821V8.96289H24.5021V28.9258ZM33.9131 20.741H24.1598V16.834H33.9131V20.741Z" fill="white"/>
<path d="M6.38812 28.9258V12.7273H0V8.96289H17.3962V12.7273H11.0081V28.9258H6.38812Z" fill="white"/>
<path d="M174.519 44.2328V40.6207L174.986 41.8584L171.096 35.3921H173.268L176.249 40.3555H174.999L177.992 35.3921H180L176.11 41.8584L176.565 40.6207V44.2328H174.519Z" fill="white"/>
<path d="M159.848 44.2328V35.3921H161.541L166.757 41.7574H165.936V35.3921H167.956V44.2328H166.277L161.048 37.8675H161.869V44.2328H159.848Z" fill="white"/>
<path d="M146.743 44.2328L150.684 35.3921H152.704L156.657 44.2328H154.51L151.277 36.4277H152.085L148.84 44.2328H146.743ZM148.713 42.3384L149.256 40.7849H153.803L154.359 42.3384H148.713Z" fill="white"/>
<path d="M136.949 44.2328V35.3921H140.776C141.567 35.3921 142.249 35.5226 142.822 35.7836C143.394 36.0362 143.836 36.4025 144.148 36.8824C144.459 37.3623 144.615 37.9348 144.615 38.6C144.615 39.2567 144.459 39.8251 144.148 40.305C143.836 40.7849 143.394 41.1554 142.822 41.4164C142.249 41.669 141.567 41.7953 140.776 41.7953H138.086L138.995 40.8733V44.2328H136.949ZM138.995 41.1007L138.086 40.1282H140.662C141.294 40.1282 141.765 39.9935 142.077 39.724C142.388 39.4546 142.544 39.0799 142.544 38.6C142.544 38.1117 142.388 37.7328 142.077 37.4633C141.765 37.1939 141.294 37.0592 140.662 37.0592H138.086L138.995 36.0867V41.1007Z" fill="white"/>
<path d="M122.614 44.2328V35.3921H124.306L128.07 41.6311H127.173L130.873 35.3921H132.553L132.578 44.2328H130.659L130.646 38.3348H131L128.044 43.2982H127.122L124.104 38.3348H124.533V44.2328H122.614Z" fill="white"/>
<path d="M113.978 44.3845C113.279 44.3845 112.631 44.2709 112.033 44.0435C111.444 43.8162 110.93 43.4963 110.492 43.0837C110.063 42.6711 109.726 42.187 109.482 41.6313C109.246 41.0756 109.128 40.4694 109.128 39.8126C109.128 39.1559 109.246 38.5497 109.482 37.994C109.726 37.4383 110.067 36.9541 110.505 36.5416C110.943 36.129 111.456 35.8091 112.046 35.5817C112.635 35.3544 113.275 35.2407 113.965 35.2407C114.664 35.2407 115.304 35.3544 115.885 35.5817C116.474 35.8091 116.984 36.129 117.413 36.5416C117.851 36.9541 118.192 37.4383 118.436 37.994C118.68 38.5413 118.802 39.1475 118.802 39.8126C118.802 40.4694 118.68 41.0798 118.436 41.6439C118.192 42.1996 117.851 42.6838 117.413 43.0963C116.984 43.5005 116.474 43.8162 115.885 44.0435C115.304 44.2709 114.668 44.3845 113.978 44.3845ZM113.965 42.6417C114.361 42.6417 114.723 42.5743 115.051 42.4396C115.388 42.3049 115.683 42.1112 115.936 41.8586C116.188 41.606 116.382 41.3071 116.516 40.9619C116.66 40.6167 116.731 40.2336 116.731 39.8126C116.731 39.3916 116.66 39.0085 116.516 38.6633C116.382 38.3181 116.188 38.0192 115.936 37.7666C115.691 37.514 115.401 37.3204 115.064 37.1857C114.727 37.051 114.361 36.9836 113.965 36.9836C113.57 36.9836 113.203 37.051 112.867 37.1857C112.538 37.3204 112.248 37.514 111.995 37.7666C111.742 38.0192 111.545 38.3181 111.401 38.6633C111.267 39.0085 111.199 39.3916 111.199 39.8126C111.199 40.2252 111.267 40.6083 111.401 40.9619C111.545 41.3071 111.738 41.606 111.982 41.8586C112.235 42.1112 112.53 42.3049 112.867 42.4396C113.203 42.5743 113.57 42.6417 113.965 42.6417Z" fill="white"/>
<path d="M102.564 44.3845C101.882 44.3845 101.246 44.2751 100.657 44.0562C100.076 43.8288 99.5707 43.5089 99.1413 43.0963C98.7119 42.6838 98.3751 42.1996 98.131 41.6439C97.8952 41.0882 97.7773 40.4778 97.7773 39.8126C97.7773 39.1475 97.8952 38.537 98.131 37.9813C98.3751 37.4256 98.7119 36.9415 99.1413 36.5289C99.5792 36.1164 100.089 35.8006 100.67 35.5817C101.25 35.3544 101.886 35.2407 102.577 35.2407C103.343 35.2407 104.033 35.3754 104.648 35.6449C105.271 35.9059 105.793 36.2932 106.214 36.8068L104.9 38.0192C104.597 37.674 104.261 37.4172 103.89 37.2488C103.52 37.072 103.115 36.9836 102.678 36.9836C102.265 36.9836 101.886 37.051 101.541 37.1857C101.196 37.3204 100.897 37.514 100.644 37.7666C100.392 38.0192 100.194 38.3181 100.051 38.6633C99.916 39.0085 99.8486 39.3916 99.8486 39.8126C99.8486 40.2336 99.916 40.6167 100.051 40.9619C100.194 41.3071 100.392 41.606 100.644 41.8586C100.897 42.1112 101.196 42.3049 101.541 42.4396C101.886 42.5743 102.265 42.6417 102.678 42.6417C103.115 42.6417 103.52 42.5575 103.89 42.3891C104.261 42.2122 104.597 41.947 104.9 41.5934L106.214 42.8058C105.793 43.3194 105.271 43.711 104.648 43.9804C104.033 44.2498 103.339 44.3845 102.564 44.3845Z" fill="white"/>
</svg>
