<svg width="499" height="499" viewBox="0 0 499 499" fill="none" xmlns="http://www.w3.org/2000/svg">
<path d="M446.737 96.5966C423.929 67.1676 394.819 43.2204 361.544 26.513C328.27 9.80565 291.677 0.762341 254.451 0.046999C217.224 -0.668343 180.31 6.96245 146.419 22.3791C112.527 37.7958 82.5188 60.607 58.5963 89.138L119.353 140.081C135.669 120.623 156.135 105.066 179.249 94.5513C202.363 84.037 227.539 78.8327 252.927 79.3206C278.316 79.8084 303.273 85.976 325.966 97.3706C348.659 108.765 368.513 125.097 384.068 145.168L446.737 96.5966Z" fill="black"/>
<path d="M52.583 402.083C75.3918 431.512 104.502 455.459 137.776 472.167C171.05 488.874 207.644 497.917 244.87 498.633C282.096 499.348 319.01 491.717 352.902 476.301C386.793 460.884 416.802 438.073 440.724 409.542L379.967 358.598C363.652 378.057 343.186 393.614 320.072 404.128C296.957 414.643 271.782 419.847 246.393 419.359C221.005 418.871 196.048 412.704 173.354 401.309C150.661 389.915 130.808 373.582 115.252 353.512L52.583 402.083Z" fill="black"/>
<circle cx="249.66" cy="249.339" r="99.4798" stroke="black" stroke-width="86"/>
</svg>
