<svg width="161" height="203" viewBox="0 0 161 203" fill="none" xmlns="http://www.w3.org/2000/svg">
<path d="M160.148 38.1613C150.928 26.535 139.161 17.0744 125.71 10.4739C112.259 3.87346 97.4667 0.300789 82.4185 0.0181839C67.3702 -0.264421 52.4482 2.75022 38.748 8.84078C25.0478 14.9313 12.9172 23.9432 3.24683 35.2147L27.8071 55.3405C34.4023 47.6533 42.6755 41.5071 52.0191 37.3533C61.3628 33.1995 71.5397 31.1435 81.8027 31.3362C92.0657 31.529 102.154 33.9656 111.328 38.4671C120.501 42.9687 128.527 49.4209 134.815 57.3501L160.148 38.1613Z" fill="#2D2D2D"/>
<path d="M4.96345e-05 164.187C9.28381 175.813 21.1324 185.274 34.6758 191.874C48.2192 198.475 63.1137 202.047 78.2657 202.33C93.4178 202.613 108.443 199.598 122.237 193.507C136.032 187.417 148.246 178.405 157.983 167.133L133.254 147.008C126.613 154.695 118.283 160.841 108.875 164.995C99.4667 169.149 89.2196 171.205 78.8858 171.012C68.552 170.819 58.3938 168.383 49.1571 163.881C39.9204 159.379 31.8396 152.927 25.508 144.998L4.96345e-05 164.187Z" fill="#2D2D2D"/>
<path fillRule="evenodd" clipRule="evenodd" d="M80.6152 123.695C93.0524 123.695 103.135 113.612 103.135 101.175C103.135 88.7382 93.0524 78.6559 80.6152 78.6559C68.1781 78.6559 58.0958 88.7382 58.0958 101.175C58.0958 113.612 68.1781 123.695 80.6152 123.695ZM80.6152 157.984C111.99 157.984 137.424 132.55 137.424 101.175C137.424 69.8005 111.99 44.3662 80.6152 44.3662C49.2404 44.3662 23.8062 69.8005 23.8062 101.175C23.8062 132.55 49.2404 157.984 80.6152 157.984Z" fill="#D00000"/>
</svg>
