<svg width="42" height="42" viewBox="0 0 42 42" fill="none" xmlns="http://www.w3.org/2000/svg">
<path d="M18.2815 1.82494C19.3588 -0.48341 22.6412 -0.483406 23.7185 1.82495L28.4936 12.0566C28.7916 12.6951 29.3049 13.2084 29.9434 13.5064L40.1751 18.2815C42.4834 19.3588 42.4834 22.6412 40.1751 23.7185L29.9434 28.4936C29.3049 28.7916 28.7916 29.3049 28.4936 29.9434L23.7185 40.1751C22.6412 42.4834 19.3588 42.4834 18.2815 40.1751L13.5064 29.9434C13.2084 29.3049 12.6951 28.7916 12.0566 28.4936L1.82494 23.7185C-0.48341 22.6412 -0.483406 19.3588 1.82495 18.2815L12.0566 13.5064C12.6951 13.2084 13.2084 12.6951 13.5064 12.0566L18.2815 1.82494Z" fill="#D00000"/>
</svg>
